<svg xmlns="http://www.w3.org/2000/svg" xmlns:xlink="http://www.w3.org/1999/xlink" width="288" zoomAndPan="magnify" viewBox="0 0 216 359.999987" height="480" preserveAspectRatio="xMidYMid meet" version="1.0"><defs><filter x="0%" y="0%" width="100%" height="100%" id="75ce70abea"><feColorMatrix values="0 0 0 0 1 0 0 0 0 1 0 0 0 0 1 0 0 0 1 0" color-interpolation-filters="sRGB"/></filter><mask id="03bc06a16f"><g filter="url(#75ce70abea)"><rect x="-21.6" width="259.2" fill="#000000" y="-35.999999" height="431.999984" fill-opacity="0.63"/></g></mask><clipPath id="1043eee419"><path d="M 0 0 L 216 0 L 216 360 L 0 360 Z M 0 0 " clip-rule="nonzero"/></clipPath><clipPath id="f3e45d69c6"><path d="M 176.730469 -56.734375 L 279.875 59.085938 L -121.722656 416.734375 L -224.867188 300.917969 Z M 176.730469 -56.734375 " clip-rule="nonzero"/></clipPath><clipPath id="60b22b1369"><rect x="0" width="216" y="0" height="360"/></clipPath><mask id="91b3678265"><g filter="url(#75ce70abea)"><rect x="-21.6" width="259.2" fill="#000000" y="-35.999999" height="431.999984" fill-opacity="0.72"/></g></mask><clipPath id="0bfb92fadb"><path d="M 0 0.480469 L 216 0.480469 L 216 318 L 0 318 Z M 0 0.480469 " clip-rule="nonzero"/></clipPath><clipPath id="86dcfc9637"><path d="M 311.109375 0.613281 L 325.777344 17.085938 L -75.816406 374.734375 L -90.488281 358.261719 Z M 311.109375 0.613281 " clip-rule="nonzero"/></clipPath><clipPath id="a590d0cff3"><rect x="0" width="216" y="0" height="318"/></clipPath></defs><rect x="-21.6" width="259.2" fill="#ffffff" y="-35.999999" height="431.999984" fill-opacity="1"/><rect x="-21.6" width="259.2" fill="#ffffff" y="-35.999999" height="431.999984" fill-opacity="1"/><rect x="-21.6" width="259.2" fill="#cd7f32" y="-35.999999" height="431.999984" fill-opacity="1"/><g mask="url(#03bc06a16f)"><g transform="matrix(1, 0, 0, 1, -0, 0)"><g clip-path="url(#60b22b1369)"><g clip-path="url(#1043eee419)"><g clip-path="url(#f3e45d69c6)"><path fill="#834100" d="M 176.730469 -56.734375 L 279.875 59.085938 L -121.871094 416.867188 L -225.015625 301.050781 Z M 176.730469 -56.734375 " fill-opacity="1" fill-rule="nonzero"/></g></g></g></g></g><g mask="url(#91b3678265)"><g transform="matrix(1, 0, 0, 1, -0, 42)"><g clip-path="url(#a590d0cff3)"><g clip-path="url(#0bfb92fadb)"><g clip-path="url(#86dcfc9637)"><path fill="#834100" d="M 311.109375 0.613281 L 325.777344 17.085938 L -75.808594 374.726562 L -90.476562 358.253906 Z M 311.109375 0.613281 " fill-opacity="1" fill-rule="nonzero"/></g></g></g></g></g></svg>