<svg xmlns="http://www.w3.org/2000/svg" xmlns:xlink="http://www.w3.org/1999/xlink" width="288" zoomAndPan="magnify" viewBox="0 0 216 359.999987" height="480" preserveAspectRatio="xMidYMid meet" version="1.0"><defs><clipPath id="69d3d09158"><path d="M 0 10 L 216 10 L 216 360 L 0 360 Z M 0 10 " clip-rule="nonzero"/></clipPath><clipPath id="bbac80eb7d"><path d="M 246.105469 10.753906 L 289.203125 59.148438 L -112.394531 416.796875 L -155.492188 368.40625 Z M 246.105469 10.753906 " clip-rule="nonzero"/></clipPath><clipPath id="eb1ae335af"><path d="M 0 213 L 216 213 L 216 360 L 0 360 Z M 0 213 " clip-rule="nonzero"/></clipPath><clipPath id="564b2ec3fb"><path d="M 333.738281 213.777344 L 376.835938 262.167969 L -24.761719 619.820312 L -67.859375 571.425781 Z M 333.738281 213.777344 " clip-rule="nonzero"/></clipPath><clipPath id="9d83c045a8"><path d="M 0 70 L 216 70 L 216 360 L 0 360 Z M 0 70 " clip-rule="nonzero"/></clipPath><clipPath id="c73b4052d1"><path d="M 291.195312 70.027344 L 307.523438 88.359375 L -94.074219 446.007812 L -110.402344 427.675781 Z M 291.195312 70.027344 " clip-rule="nonzero"/></clipPath></defs><rect x="-21.6" width="259.2" fill="#ffffff" y="-35.999999" height="431.999984" fill-opacity="1"/><rect x="-21.6" width="259.2" fill="#ffffff" y="-35.999999" height="431.999984" fill-opacity="1"/><rect x="-21.6" width="259.2" fill="#ffd700" y="-35.999999" height="431.999984" fill-opacity="1"/><g clip-path="url(#69d3d09158)"><g clip-path="url(#bbac80eb7d)"><path fill="#fff7ee" d="M 246.105469 10.753906 L 289.203125 59.148438 L -112.488281 416.878906 L -155.582031 368.488281 Z M 246.105469 10.753906 " fill-opacity="1" fill-rule="nonzero"/></g></g><g clip-path="url(#eb1ae335af)"><g clip-path="url(#564b2ec3fb)"><path fill="#fff7ee" d="M 333.738281 213.777344 L 376.835938 262.167969 L -24.855469 619.902344 L -67.949219 571.507812 Z M 333.738281 213.777344 " fill-opacity="1" fill-rule="nonzero"/></g></g><g clip-path="url(#9d83c045a8)"><g clip-path="url(#c73b4052d1)"><path fill="#fff7ee" d="M 291.195312 70.027344 L 307.523438 88.359375 L -94.085938 446.019531 L -110.410156 427.683594 Z M 291.195312 70.027344 " fill-opacity="1" fill-rule="nonzero"/></g></g></svg>