<svg xmlns="http://www.w3.org/2000/svg" xmlns:xlink="http://www.w3.org/1999/xlink" width="500" zoomAndPan="magnify" viewBox="0 0 375 374.999991" height="500" preserveAspectRatio="xMidYMid meet" version="1.0"><defs><clipPath id="f98a0be06e"><path d="M 9 267.203125 L 366 267.203125 L 366 355 L 9 355 Z M 9 267.203125 " clip-rule="nonzero"/></clipPath><clipPath id="5cfe9b7e9f"><path d="M 322.375 267.257812 L 14.300781 267.257812 C 11.425781 267.257812 9.097656 269.589844 9.097656 272.464844 C 9.097656 275.339844 11.425781 277.667969 14.300781 277.667969 L 322.121094 277.667969 C 340.0625 277.667969 355.34375 291.621094 355.980469 309.542969 C 356.652344 328.375 341.589844 343.839844 322.902344 343.839844 L 14.300781 343.839844 C 11.425781 343.839844 9.097656 346.171875 9.097656 349.0625 C 9.097656 351.957031 11.425781 354.265625 14.300781 354.265625 L 322.375 354.265625 C 346.410156 354.265625 365.898438 334.78125 365.898438 310.746094 C 365.898438 286.710938 346.410156 267.222656 322.375 267.222656 " clip-rule="nonzero"/></clipPath><clipPath id="7775a2a648"><path d="M 19.238281 286.441406 L 346 286.441406 L 346 335 L 19.238281 335 Z M 19.238281 286.441406 " clip-rule="nonzero"/></clipPath><clipPath id="0c84f34e8c"><path d="M 345.917969 310.78125 C 345.917969 323.953125 335.222656 334.636719 322.046875 334.636719 L 19.722656 334.636719 L 19.722656 286.910156 L 322.046875 286.910156 C 328.632812 286.910156 334.601562 289.585938 338.933594 293.898438 C 343.246094 298.207031 345.917969 304.175781 345.917969 310.78125 " clip-rule="nonzero"/></clipPath><clipPath id="6e03c89e09"><path d="M 54 166 L 321 166 L 321 253.460938 L 54 253.460938 Z M 54 166 " clip-rule="nonzero"/></clipPath><clipPath id="405ccb5533"><path d="M 98.105469 166.023438 L 315.207031 166.023438 C 318.082031 166.023438 320.410156 168.351562 320.410156 171.226562 C 320.410156 174.101562 318.082031 176.429688 315.207031 176.429688 L 98.378906 176.429688 C 80.4375 176.429688 65.15625 190.386719 64.519531 208.328125 C 63.84375 227.160156 78.910156 242.625 97.597656 242.625 L 315.207031 242.625 C 318.082031 242.625 320.410156 244.953125 320.410156 247.847656 C 320.410156 250.71875 318.082031 253.050781 315.207031 253.050781 L 98.105469 253.050781 C 74.070312 253.066406 54.585938 233.582031 54.585938 209.546875 C 54.585938 185.511719 74.070312 166.023438 98.105469 166.023438 " clip-rule="nonzero"/></clipPath><clipPath id="7466debcab"><path d="M 74.207031 185 L 310 185 L 310 234 L 74.207031 234 Z M 74.207031 185 " clip-rule="nonzero"/></clipPath><clipPath id="bc570c73c5"><path d="M 309.800781 185.675781 L 309.800781 233.398438 L 98.433594 233.398438 C 85.261719 233.398438 74.5625 222.71875 74.5625 209.546875 C 74.5625 202.941406 77.238281 196.972656 81.550781 192.660156 C 85.859375 188.347656 91.847656 185.675781 98.433594 185.675781 L 137.863281 185.675781 L 137.863281 221.828125 L 151.800781 210.945312 L 165.71875 221.828125 L 165.71875 185.675781 Z M 309.800781 185.675781 " clip-rule="nonzero"/></clipPath><clipPath id="20550adbc4"><path d="M 100 64 L 275 64 L 275 152 L 100 152 Z M 100 64 " clip-rule="nonzero"/></clipPath><clipPath id="3c693da0ec"><path d="M 231.402344 64.789062 L 105.292969 64.789062 C 102.417969 64.789062 100.070312 67.117188 100.070312 69.992188 C 100.070312 72.867188 102.398438 75.195312 105.292969 75.195312 L 231.148438 75.195312 C 249.085938 75.195312 264.371094 89.152344 265.007812 107.089844 C 265.679688 125.921875 250.613281 141.386719 231.929688 141.386719 L 105.292969 141.386719 C 102.417969 141.386719 100.070312 143.71875 100.070312 146.609375 C 100.070312 149.503906 102.398438 151.8125 105.292969 151.8125 L 231.402344 151.8125 C 255.4375 151.8125 274.921875 132.328125 274.921875 108.292969 C 274.921875 84.257812 255.4375 64.769531 231.402344 64.769531 " clip-rule="nonzero"/></clipPath><clipPath id="4f2689d1aa"><path d="M 110 84.4375 L 255 84.4375 L 255 132.53125 L 110 132.53125 Z M 110 84.4375 " clip-rule="nonzero"/></clipPath><clipPath id="62dfca8754"><path d="M 254.945312 108.308594 C 254.945312 121.484375 244.246094 132.164062 231.074219 132.164062 L 110.695312 132.164062 L 110.695312 84.4375 L 231.074219 84.4375 C 237.660156 84.4375 243.628906 87.113281 247.957031 91.425781 C 252.269531 95.738281 254.945312 101.707031 254.945312 108.308594 " clip-rule="nonzero"/></clipPath><clipPath id="c1347c0b5a"><path d="M 154 20 L 218 20 L 218 52.832031 L 154 52.832031 Z M 154 20 " clip-rule="nonzero"/></clipPath><clipPath id="a231cd81fd"><path d="M 217.628906 52.414062 L 185.933594 20.703125 L 154.21875 52.414062 Z M 217.628906 52.414062 " clip-rule="nonzero"/></clipPath></defs><g clip-path="url(#f98a0be06e)"><g clip-path="url(#5cfe9b7e9f)"><path fill="#ff6d6f" d="M 0 11.605469 L 375.152344 11.605469 L 375.152344 363.394531 L 0 363.394531 Z M 0 11.605469 " fill-opacity="1" fill-rule="nonzero"/></g></g><g clip-path="url(#7775a2a648)"><g clip-path="url(#0c84f34e8c)"><path fill="#ff6d6f" d="M 0 11.605469 L 375.152344 11.605469 L 375.152344 363.394531 L 0 363.394531 Z M 0 11.605469 " fill-opacity="1" fill-rule="nonzero"/></g></g><g clip-path="url(#6e03c89e09)"><g clip-path="url(#405ccb5533)"><path fill="#ff6d6f" d="M 0 11.605469 L 375.152344 11.605469 L 375.152344 363.394531 L 0 363.394531 Z M 0 11.605469 " fill-opacity="1" fill-rule="nonzero"/></g></g><g clip-path="url(#7466debcab)"><g clip-path="url(#bc570c73c5)"><path fill="#ff6d6f" d="M 0 11.605469 L 375.152344 11.605469 L 375.152344 363.394531 L 0 363.394531 Z M 0 11.605469 " fill-opacity="1" fill-rule="nonzero"/></g></g><g clip-path="url(#20550adbc4)"><g clip-path="url(#3c693da0ec)"><path fill="#ff6d6f" d="M 0 11.605469 L 375.152344 11.605469 L 375.152344 363.394531 L 0 363.394531 Z M 0 11.605469 " fill-opacity="1" fill-rule="nonzero"/></g></g><g clip-path="url(#4f2689d1aa)"><g clip-path="url(#62dfca8754)"><path fill="#ff6d6f" d="M 0 11.605469 L 375.152344 11.605469 L 375.152344 363.394531 L 0 363.394531 Z M 0 11.605469 " fill-opacity="1" fill-rule="nonzero"/></g></g><g clip-path="url(#c1347c0b5a)"><g clip-path="url(#a231cd81fd)"><path fill="#ff6d6f" d="M 0 11.605469 L 375.152344 11.605469 L 375.152344 363.394531 L 0 363.394531 Z M 0 11.605469 " fill-opacity="1" fill-rule="nonzero"/></g></g></svg>