<svg xmlns="http://www.w3.org/2000/svg" xmlns:xlink="http://www.w3.org/1999/xlink" width="1000" zoomAndPan="magnify" viewBox="0 0 750 225" height="300" preserveAspectRatio="xMidYMid meet" version="1.0"><defs><g/><clipPath id="318f13efea"><path d="M 27 153.28125 L 210 153.28125 L 210 198 L 27 198 Z M 27 153.28125 " clip-rule="nonzero"/></clipPath><clipPath id="fc5185c5a9"><path d="M 187.449219 153.308594 L 29.816406 153.308594 C 28.347656 153.308594 27.15625 154.503906 27.15625 155.972656 C 27.15625 157.445312 28.347656 158.636719 29.816406 158.636719 L 187.320312 158.636719 C 196.496094 158.636719 204.316406 165.777344 204.644531 174.945312 C 204.988281 184.582031 197.28125 192.496094 187.71875 192.496094 L 29.816406 192.496094 C 28.347656 192.496094 27.15625 193.6875 27.15625 195.167969 C 27.15625 196.648438 28.347656 197.828125 29.816406 197.828125 L 187.449219 197.828125 C 199.746094 197.828125 209.71875 187.859375 209.71875 175.5625 C 209.71875 163.261719 199.746094 153.292969 187.449219 153.292969 " clip-rule="nonzero"/></clipPath><clipPath id="b8aaaba3b5"><path d="M 32.34375 163.125 L 199.6875 163.125 L 199.6875 188 L 32.34375 188 Z M 32.34375 163.125 " clip-rule="nonzero"/></clipPath><clipPath id="23670aef47"><path d="M 199.496094 175.578125 C 199.496094 182.320312 194.023438 187.785156 187.28125 187.785156 L 32.589844 187.785156 L 32.589844 163.363281 L 187.28125 163.363281 C 190.652344 163.363281 193.707031 164.734375 195.921875 166.941406 C 198.128906 169.144531 199.496094 172.199219 199.496094 175.578125 " clip-rule="nonzero"/></clipPath><clipPath id="ee9d31d71c"><path d="M 50 101.25 L 187 101.25 L 187 146.25 L 50 146.25 Z M 50 101.25 " clip-rule="nonzero"/></clipPath><clipPath id="e75d5e68f8"><path d="M 72.699219 101.511719 L 183.78125 101.511719 C 185.25 101.511719 186.445312 102.703125 186.445312 104.175781 C 186.445312 105.644531 185.25 106.835938 183.78125 106.835938 L 72.835938 106.835938 C 63.65625 106.835938 55.839844 113.976562 55.511719 123.15625 C 55.167969 132.792969 62.875 140.707031 72.4375 140.707031 L 183.78125 140.707031 C 185.25 140.707031 186.445312 141.898438 186.445312 143.378906 C 186.445312 144.847656 185.25 146.039062 183.78125 146.039062 L 72.699219 146.039062 C 60.398438 146.050781 50.429688 136.078125 50.429688 123.78125 C 50.429688 111.480469 60.398438 101.511719 72.699219 101.511719 " clip-rule="nonzero"/></clipPath><clipPath id="a692d6568d"><path d="M 60.46875 111.09375 L 181.40625 111.09375 L 181.40625 136 L 60.46875 136 Z M 60.46875 111.09375 " clip-rule="nonzero"/></clipPath><clipPath id="11c6b196d2"><path d="M 181.015625 111.566406 L 181.015625 135.984375 L 72.867188 135.984375 C 66.125 135.984375 60.652344 130.519531 60.652344 123.78125 C 60.652344 120.402344 62.019531 117.347656 64.226562 115.140625 C 66.433594 112.933594 69.496094 111.566406 72.867188 111.566406 L 93.039062 111.566406 L 93.039062 130.0625 L 100.171875 124.496094 L 107.292969 130.0625 L 107.292969 111.566406 Z M 181.015625 111.566406 " clip-rule="nonzero"/></clipPath><clipPath id="3496433c98"><path d="M 73.125 49.21875 L 163.828125 49.21875 L 163.828125 94.921875 L 73.125 94.921875 Z M 73.125 49.21875 " clip-rule="nonzero"/></clipPath><clipPath id="340215320e"><path d="M 140.902344 49.710938 L 76.375 49.710938 C 74.902344 49.710938 73.703125 50.902344 73.703125 52.375 C 73.703125 53.847656 74.894531 55.039062 76.375 55.039062 L 140.769531 55.039062 C 149.949219 55.039062 157.769531 62.179688 158.09375 71.355469 C 158.441406 80.992188 150.730469 88.90625 141.171875 88.90625 L 76.375 88.90625 C 74.902344 88.90625 73.703125 90.097656 73.703125 91.578125 C 73.703125 93.058594 74.894531 94.242188 76.375 94.242188 L 140.902344 94.242188 C 153.199219 94.242188 163.167969 84.269531 163.167969 71.972656 C 163.167969 59.671875 153.199219 49.703125 140.902344 49.703125 " clip-rule="nonzero"/></clipPath><clipPath id="706460499e"><path d="M 79 59.765625 L 153 59.765625 L 153 84.375 L 79 84.375 Z M 79 59.765625 " clip-rule="nonzero"/></clipPath><clipPath id="e1bbba8bf6"><path d="M 152.949219 71.980469 C 152.949219 78.722656 147.472656 84.1875 140.734375 84.1875 L 79.140625 84.1875 L 79.140625 59.765625 L 140.734375 59.765625 C 144.101562 59.765625 147.15625 61.136719 149.371094 63.339844 C 151.578125 65.546875 152.949219 68.601562 152.949219 71.980469 " clip-rule="nonzero"/></clipPath><clipPath id="b5ca170bb8"><path d="M 101.25 27 L 134 27 L 134 43.59375 L 101.25 43.59375 Z M 101.25 27 " clip-rule="nonzero"/></clipPath><clipPath id="2638d50696"><path d="M 133.851562 43.382812 L 117.636719 27.15625 L 101.410156 43.382812 Z M 133.851562 43.382812 " clip-rule="nonzero"/></clipPath></defs><g clip-path="url(#318f13efea)"><g clip-path="url(#fc5185c5a9)"><path fill="#ff6d6f" d="M 22.5 22.5 L 214.453125 22.5 L 214.453125 202.5 L 22.5 202.5 Z M 22.5 22.5 " fill-opacity="1" fill-rule="nonzero"/></g></g><g clip-path="url(#b8aaaba3b5)"><g clip-path="url(#23670aef47)"><path fill="#ff6d6f" d="M 22.5 22.5 L 214.453125 22.5 L 214.453125 202.5 L 22.5 202.5 Z M 22.5 22.5 " fill-opacity="1" fill-rule="nonzero"/></g></g><g clip-path="url(#ee9d31d71c)"><g clip-path="url(#e75d5e68f8)"><path fill="#ff6d6f" d="M 22.5 22.5 L 214.453125 22.5 L 214.453125 202.5 L 22.5 202.5 Z M 22.5 22.5 " fill-opacity="1" fill-rule="nonzero"/></g></g><g clip-path="url(#a692d6568d)"><g clip-path="url(#11c6b196d2)"><path fill="#ff6d6f" d="M 22.5 22.5 L 214.453125 22.5 L 214.453125 202.5 L 22.5 202.5 Z M 22.5 22.5 " fill-opacity="1" fill-rule="nonzero"/></g></g><g clip-path="url(#3496433c98)"><g clip-path="url(#340215320e)"><path fill="#ff6d6f" d="M 22.5 22.5 L 214.453125 22.5 L 214.453125 202.5 L 22.5 202.5 Z M 22.5 22.5 " fill-opacity="1" fill-rule="nonzero"/></g></g><g clip-path="url(#706460499e)"><g clip-path="url(#e1bbba8bf6)"><path fill="#ff6d6f" d="M 22.5 22.5 L 214.453125 22.5 L 214.453125 202.5 L 22.5 202.5 Z M 22.5 22.5 " fill-opacity="1" fill-rule="nonzero"/></g></g><g clip-path="url(#b5ca170bb8)"><g clip-path="url(#2638d50696)"><path fill="#ff6d6f" d="M 22.5 22.5 L 214.453125 22.5 L 214.453125 202.5 L 22.5 202.5 Z M 22.5 22.5 " fill-opacity="1" fill-rule="nonzero"/></g></g><g fill="#f9e8bd" fill-opacity="1"><g transform="translate(221.60485, 103.500006)"><g><path d="M 45.90625 -31.453125 L 45.90625 -31.03125 C 45.90625 -31.03125 46.359375 -30.914062 47.265625 -30.6875 C 48.171875 -30.457031 49.300781 -30.046875 50.65625 -29.453125 C 52.019531 -28.859375 53.378906 -28.007812 54.734375 -26.90625 C 56.097656 -25.800781 57.234375 -24.367188 58.140625 -22.609375 C 59.046875 -20.847656 59.5 -18.695312 59.5 -16.15625 C 59.5 -13.03125 58.5625 -10.175781 56.6875 -7.59375 C 54.820312 -5.019531 51.773438 -2.96875 47.546875 -1.4375 C 43.328125 0.0820312 37.675781 0.84375 30.59375 0.84375 C 26.0625 0.84375 21.851562 0.769531 17.96875 0.625 C 14.09375 0.488281 10.976562 0.347656 8.625 0.203125 C 6.269531 0.0664062 5.09375 0 5.09375 0 L 5.09375 -59.5 C 5.09375 -59.5 6.269531 -59.566406 8.625 -59.703125 C 10.976562 -59.847656 14.066406 -59.988281 17.890625 -60.125 C 21.710938 -60.269531 25.804688 -60.34375 30.171875 -60.34375 C 36.578125 -60.34375 41.734375 -59.578125 45.640625 -58.046875 C 49.554688 -56.523438 52.421875 -54.515625 54.234375 -52.015625 C 56.046875 -49.523438 56.953125 -46.78125 56.953125 -43.78125 C 56.953125 -41.226562 56.398438 -39.144531 55.296875 -37.53125 C 54.191406 -35.914062 52.898438 -34.664062 51.421875 -33.78125 C 49.953125 -32.90625 48.664062 -32.296875 47.5625 -31.953125 C 46.457031 -31.617188 45.90625 -31.453125 45.90625 -31.453125 Z M 27.203125 -45.046875 L 27.203125 -37.40625 L 30.171875 -37.40625 C 31.648438 -37.40625 32.796875 -37.769531 33.609375 -38.5 C 34.429688 -39.238281 34.84375 -40.144531 34.84375 -41.21875 C 34.84375 -42.300781 34.429688 -43.207031 33.609375 -43.9375 C 32.796875 -44.675781 31.648438 -45.046875 30.171875 -45.046875 Z M 30.59375 -14.453125 C 32.300781 -14.453125 33.578125 -14.847656 34.421875 -15.640625 C 35.273438 -16.429688 35.703125 -17.453125 35.703125 -18.703125 C 35.703125 -20.003906 35.273438 -21.035156 34.421875 -21.796875 C 33.578125 -22.566406 32.300781 -22.953125 30.59375 -22.953125 L 27.203125 -22.953125 L 27.203125 -14.453125 C 27.203125 -14.453125 27.554688 -14.453125 28.265625 -14.453125 C 28.972656 -14.453125 29.75 -14.453125 30.59375 -14.453125 Z M 30.59375 -14.453125 "/></g></g></g><g fill="#f9e8bd" fill-opacity="1"><g transform="translate(298.8666, 103.500006)"><g><path d="M 27.203125 -59.5 L 27.203125 0 L 5.09375 0 L 5.09375 -59.5 Z M 7.65625 -73.953125 C 7.65625 -76.273438 8.488281 -78.269531 10.15625 -79.9375 C 11.832031 -81.613281 13.832031 -82.453125 16.15625 -82.453125 C 18.476562 -82.453125 20.472656 -81.613281 22.140625 -79.9375 C 23.816406 -78.269531 24.65625 -76.273438 24.65625 -73.953125 C 24.65625 -71.628906 23.816406 -69.628906 22.140625 -67.953125 C 20.472656 -66.285156 18.476562 -65.453125 16.15625 -65.453125 C 13.832031 -65.453125 11.832031 -66.285156 10.15625 -67.953125 C 8.488281 -69.628906 7.65625 -71.628906 7.65625 -73.953125 Z M 7.65625 -73.953125 "/></g></g></g><g fill="#f9e8bd" fill-opacity="1"><g transform="translate(346.379698, 103.500006)"><g><path d="M 27.203125 -59.5 L 27.203125 -19.546875 L 50.15625 -19.546875 L 50.15625 0 L 5.09375 0 L 5.09375 -59.5 Z M 27.203125 -59.5 "/></g></g></g><g fill="#f9e8bd" fill-opacity="1"><g transform="translate(413.441913, 103.500006)"><g><path d="M 37.40625 -19.546875 C 37.851562 -19.546875 38.242188 -19.546875 38.578125 -19.546875 C 38.921875 -19.546875 39.09375 -19.546875 39.09375 -19.546875 L 39.09375 -29.75 L 59.5 -29.75 L 59.5 -8.921875 C 59.5 -8.921875 59.015625 -8.410156 58.046875 -7.390625 C 57.085938 -6.367188 55.585938 -5.175781 53.546875 -3.8125 C 51.503906 -2.457031 48.9375 -1.269531 45.84375 -0.25 C 42.757812 0.769531 39.09375 1.28125 34.84375 1.28125 C 30.375 1.28125 26.238281 0.488281 22.4375 -1.09375 C 18.644531 -2.6875 15.316406 -4.882812 12.453125 -7.6875 C 9.585938 -10.5 7.363281 -13.785156 5.78125 -17.546875 C 4.195312 -21.316406 3.40625 -25.382812 3.40625 -29.75 C 3.40625 -34.113281 4.195312 -38.175781 5.78125 -41.9375 C 7.363281 -45.707031 9.585938 -48.992188 12.453125 -51.796875 C 15.316406 -54.609375 18.644531 -56.804688 22.4375 -58.390625 C 26.238281 -59.984375 30.375 -60.78125 34.84375 -60.78125 C 38.875 -60.78125 42.390625 -60.3125 45.390625 -59.375 C 48.390625 -58.4375 50.867188 -57.34375 52.828125 -56.09375 C 54.785156 -54.851562 56.242188 -53.765625 57.203125 -52.828125 C 58.171875 -51.890625 58.65625 -51.421875 58.65625 -51.421875 L 48.453125 -35.28125 C 48.453125 -35.28125 47.941406 -35.675781 46.921875 -36.46875 C 45.898438 -37.257812 44.550781 -38.035156 42.875 -38.796875 C 41.207031 -39.566406 39.382812 -39.953125 37.40625 -39.953125 C 34.457031 -39.953125 32.019531 -39 30.09375 -37.09375 C 28.164062 -35.195312 27.203125 -32.75 27.203125 -29.75 C 27.203125 -26.800781 28.164062 -24.363281 30.09375 -22.4375 C 32.019531 -20.507812 34.457031 -19.546875 37.40625 -19.546875 Z M 37.40625 -19.546875 "/></g></g></g><g fill="#f9e8bd" fill-opacity="1"><g transform="translate(491.553615, 103.500006)"><g><path d="M 27.203125 -59.5 L 27.203125 0 L 5.09375 0 L 5.09375 -59.5 Z M 7.65625 -73.953125 C 7.65625 -76.273438 8.488281 -78.269531 10.15625 -79.9375 C 11.832031 -81.613281 13.832031 -82.453125 16.15625 -82.453125 C 18.476562 -82.453125 20.472656 -81.613281 22.140625 -79.9375 C 23.816406 -78.269531 24.65625 -76.273438 24.65625 -73.953125 C 24.65625 -71.628906 23.816406 -69.628906 22.140625 -67.953125 C 20.472656 -66.285156 18.476562 -65.453125 16.15625 -65.453125 C 13.832031 -65.453125 11.832031 -66.285156 10.15625 -67.953125 C 8.488281 -69.628906 7.65625 -71.628906 7.65625 -73.953125 Z M 7.65625 -73.953125 "/></g></g></g><g fill="#f9e8bd" fill-opacity="1"><g transform="translate(221.60485, 204.799045)"><g><path d="M 47.171875 -59.5 C 47.171875 -59.445312 47.425781 -58.566406 47.9375 -56.859375 C 48.445312 -55.160156 49.113281 -52.894531 49.9375 -50.0625 C 50.757812 -47.226562 51.679688 -44.054688 52.703125 -40.546875 C 53.722656 -37.035156 54.785156 -33.394531 55.890625 -29.625 C 56.992188 -25.851562 58.066406 -22.210938 59.109375 -18.703125 C 60.160156 -15.191406 61.097656 -12.03125 61.921875 -9.21875 C 62.742188 -6.414062 63.394531 -4.175781 63.875 -2.5 C 64.351562 -0.832031 64.59375 0 64.59375 0 L 39.953125 0 L 38.25 -8.5 L 27.203125 -8.5 L 25.5 0 L 0.84375 0 L 18.28125 -59.5 Z M 29.75 -22.09375 L 35.703125 -22.09375 L 32.71875 -37.40625 Z M 29.75 -22.09375 "/></g></g></g><g fill="#f9e8bd" fill-opacity="1"><g transform="translate(323.260825, 204.799045)"><g><path d="M 63.75 0 L 38.25 0 L 28.046875 -19.546875 L 27.203125 -19.546875 L 27.203125 0 L 5.09375 0 L 5.09375 -59.5 C 5.09375 -59.5 5.773438 -59.539062 7.140625 -59.625 C 8.503906 -59.707031 10.347656 -59.804688 12.671875 -59.921875 C 14.992188 -60.035156 17.625 -60.132812 20.5625 -60.21875 C 23.507812 -60.300781 26.570312 -60.34375 29.75 -60.34375 C 35.976562 -60.34375 41.101562 -59.460938 45.125 -57.703125 C 49.15625 -55.953125 52.132812 -53.519531 54.0625 -50.40625 C 55.988281 -47.289062 56.953125 -43.664062 56.953125 -39.53125 C 56.953125 -36.46875 56.566406 -33.875 55.796875 -31.75 C 55.035156 -29.625 54.144531 -27.910156 53.125 -26.609375 C 52.101562 -25.304688 51.207031 -24.367188 50.4375 -23.796875 C 49.675781 -23.234375 49.296875 -22.953125 49.296875 -22.953125 Z M 27.203125 -34.84375 L 29.75 -34.84375 C 31.21875 -34.84375 32.429688 -35.3125 33.390625 -36.25 C 34.359375 -37.1875 34.84375 -38.28125 34.84375 -39.53125 C 34.84375 -40.832031 34.359375 -41.9375 33.390625 -42.84375 C 32.429688 -43.75 31.21875 -44.203125 29.75 -44.203125 L 27.203125 -44.203125 Z M 27.203125 -34.84375 "/></g></g></g><g fill="#f9e8bd" fill-opacity="1"><g transform="translate(421.516967, 204.799045)"><g><path d="M 27.203125 -21.25 L 27.203125 -17 L 52.703125 -17 L 52.703125 0 L 5.09375 0 L 5.09375 -59.5 L 51 -59.5 L 51 -42.5 L 27.203125 -42.5 L 27.203125 -38.25 L 49.296875 -38.25 L 49.296875 -21.25 Z M 27.203125 -21.25 "/></g></g></g><g fill="#f9e8bd" fill-opacity="1"><g transform="translate(512.973407, 204.799045)"><g><path d="M 41.65625 0 L 27.203125 -26.34375 L 27.203125 0 L 5.09375 0 L 5.09375 -59.5 L 29.75 -59.5 L 44.203125 -33.15625 L 44.203125 -59.5 L 66.296875 -59.5 L 66.296875 0 Z M 41.65625 0 "/></g></g></g><g fill="#f9e8bd" fill-opacity="1"><g transform="translate(620.579108, 204.799045)"><g><path d="M 47.171875 -59.5 C 47.171875 -59.445312 47.425781 -58.566406 47.9375 -56.859375 C 48.445312 -55.160156 49.113281 -52.894531 49.9375 -50.0625 C 50.757812 -47.226562 51.679688 -44.054688 52.703125 -40.546875 C 53.722656 -37.035156 54.785156 -33.394531 55.890625 -29.625 C 56.992188 -25.851562 58.066406 -22.210938 59.109375 -18.703125 C 60.160156 -15.191406 61.097656 -12.03125 61.921875 -9.21875 C 62.742188 -6.414062 63.394531 -4.175781 63.875 -2.5 C 64.351562 -0.832031 64.59375 0 64.59375 0 L 39.953125 0 L 38.25 -8.5 L 27.203125 -8.5 L 25.5 0 L 0.84375 0 L 18.28125 -59.5 Z M 29.75 -22.09375 L 35.703125 -22.09375 L 32.71875 -37.40625 Z M 29.75 -22.09375 "/></g></g></g></svg>