<svg xmlns="http://www.w3.org/2000/svg" xmlns:xlink="http://www.w3.org/1999/xlink" width="288" zoomAndPan="magnify" viewBox="0 0 216 359.999987" height="480" preserveAspectRatio="xMidYMid meet" version="1.0"><defs><filter x="0%" y="0%" width="100%" height="100%" id="a7c15fb9c3"><feColorMatrix values="0 0 0 0 1 0 0 0 0 1 0 0 0 0 1 0 0 0 1 0" color-interpolation-filters="sRGB"/></filter><mask id="874405c566"><g filter="url(#a7c15fb9c3)"><rect x="-21.6" width="259.2" fill="#000000" y="-35.999999" height="431.999984" fill-opacity="0.63"/></g></mask><clipPath id="c2628a4e81"><path d="M 0 0 L 216 0 L 216 352 L 0 352 Z M 0 0 " clip-rule="nonzero"/></clipPath><clipPath id="30eba4b8db"><path d="M 129.261719 -121.605469 L 232.410156 -5.789062 L -169.1875 351.863281 L -272.332031 236.042969 Z M 129.261719 -121.605469 " clip-rule="nonzero"/></clipPath><clipPath id="7126aac9ee"><rect x="0" width="216" y="0" height="353"/></clipPath><clipPath id="7076047be5"><path d="M 0 180 L 216 180 L 216 360 L 0 360 Z M 0 180 " clip-rule="nonzero"/></clipPath><clipPath id="53eebccb5f"><path d="M 363.265625 180 L 400.632812 221.957031 L -0.964844 579.605469 L -38.328125 537.648438 Z M 363.265625 180 " clip-rule="nonzero"/></clipPath></defs><rect x="-21.6" width="259.2" fill="#ffffff" y="-35.999999" height="431.999984" fill-opacity="1"/><rect x="-21.6" width="259.2" fill="#ffffff" y="-35.999999" height="431.999984" fill-opacity="1"/><rect x="-21.6" width="259.2" fill="#c0c0c0" y="-35.999999" height="431.999984" fill-opacity="1"/><g mask="url(#874405c566)"><g transform="matrix(1, 0, 0, 1, -0, 0)"><g clip-path="url(#7126aac9ee)"><g clip-path="url(#c2628a4e81)"><g clip-path="url(#30eba4b8db)"><path fill="#fff7ee" d="M 129.261719 -121.605469 L 232.410156 -5.789062 L -169.339844 351.996094 L -272.484375 236.175781 Z M 129.261719 -121.605469 " fill-opacity="1" fill-rule="nonzero"/></g></g></g></g></g><g clip-path="url(#7076047be5)"><g clip-path="url(#53eebccb5f)"><path fill="#fff7ee" d="M 363.265625 180 L 400.632812 221.957031 L -0.902344 579.550781 L -38.265625 537.59375 Z M 363.265625 180 " fill-opacity="1" fill-rule="nonzero"/></g></g></svg>